<?xml version="1.0" encoding="utf-8"?>
<!-- Generator: Adobe Illustrator 16.0.0, SVG Export Plug-In . SVG Version: 6.00 Build 0)  -->
<!DOCTYPE svg PUBLIC "-//W3C//DTD SVG 1.1//EN" "http://www.w3.org/Graphics/SVG/1.1/DTD/svg11.dtd">
<svg version="1.1" id="Layer_1" xmlns="http://www.w3.org/2000/svg" xmlns:xlink="http://www.w3.org/1999/xlink" x="0px" y="0px"
	 width="20px" height="20px" viewBox="0 0 80 80" enable-background="new 0 0 80 80" xml:space="preserve">
<g>
	<path d="M-194.5-304.5h-60c-4.125,0-7.5,3.375-7.5,7.5v65c0,4.125,3.375,7.5,7.5,7.5h60c4.125,0,7.5-3.375,7.5-7.5v-65
		C-187-301.125-190.375-304.5-194.5-304.5L-194.5-304.5z M-194.458-231.728h-60.084v-65.546h60.084V-231.728z M-242-259.5h35v5h-35
		V-259.5z M-242-249.5h35v5h-35V-249.5z M-237-282c0,4.142,3.357,7.5,7.5,7.5s7.5-3.359,7.5-7.5c0-4.142-3.357-7.5-7.5-7.5
		S-237-286.142-237-282L-237-282z M-224.5-274.5h-10c-4.125,0-7.5,2.25-7.5,4.999v5h25v-5C-217-272.25-220.375-274.5-224.5-274.5
		L-224.5-274.5z M-224.5-274.5"/>
</g>
<g>
	<path d="M-55.387-231.652h-74.227c-1.598,0-2.887-1.367-2.887-3.043v-59.608c0-1.684,1.289-3.043,2.887-3.043h74.227
		c1.598,0,2.887,1.36,2.887,3.043v59.608C-52.5-233.02-53.789-231.652-55.387-231.652L-55.387-231.652z M-126.728-237.74h68.455
		v-53.527h-68.455V-237.74z M-126.728-237.74"/>
	<path d="M-112.921-265.178c-5.305,0-9.624-4.32-9.624-9.629c0-5.312,4.319-9.63,9.624-9.63c5.312,0,9.63,4.318,9.63,9.63
		C-103.291-269.498-107.609-265.178-112.921-265.178L-112.921-265.178z M-112.921-278.358c-1.95,0-3.545,1.594-3.545,3.551
		c0,1.958,1.595,3.545,3.545,3.545c1.956,0,3.55-1.588,3.55-3.545C-109.371-276.764-110.965-278.358-112.921-278.358
		L-112.921-278.358z M-112.921-278.358"/>
	<path d="M-106.326-244.568h-13.177c-1.682,0-3.042-1.365-3.042-3.043v-13.176c0-1.678,1.36-3.045,3.042-3.045h13.177
		c1.676,0,3.035,1.367,3.035,3.045v13.176C-103.291-245.934-104.65-244.568-106.326-244.568L-106.326-244.568z M-116.466-250.648
		h7.095v-7.096h-7.095V-250.648z M-116.466-250.648"/>
	<g>
		<path d="M-66.101-274.958h-28.964c-1.676,0-3.035-1.364-3.035-3.042c0-1.678,1.359-3.038,3.035-3.038h28.964
			c1.676,0,3.035,1.36,3.035,3.038C-63.065-276.322-64.425-274.958-66.101-274.958L-66.101-274.958z M-66.101-274.958"/>
		<path d="M-66.101-261.781h-28.964c-1.676,0-3.035-1.359-3.035-3.037c0-1.684,1.359-3.043,3.035-3.043h28.964
			c1.676,0,3.035,1.359,3.035,3.043C-63.065-263.141-64.425-261.781-66.101-261.781L-66.101-261.781z M-66.101-261.781"/>
		<path d="M-66.101-248.605h-28.964c-1.676,0-3.035-1.365-3.035-3.045c0-1.676,1.359-3.033,3.035-3.033h28.964
			c1.676,0,3.035,1.357,3.035,3.033C-63.065-249.971-64.425-248.605-66.101-248.605L-66.101-248.605z M-66.101-248.605"/>
	</g>
</g>
<g>
	<path d="M10.54-299.666H3.522c-2.116,0-3.522,1.406-3.522,3.52v7.022c0,2.113,1.406,3.521,3.522,3.521h7.018
		c2.116,0,3.522-1.407,3.522-3.521v-7.022C14.063-298.26,12.656-299.666,10.54-299.666L10.54-299.666z M10.54-299.666"/>
	<path d="M10.54-271.542H3.522c-2.116,0-3.522,1.41-3.522,3.523v7.036c0,2.116,1.406,3.522,3.522,3.522h7.018
		c2.116,0,3.522-1.406,3.522-3.522v-7.036C14.063-270.132,12.656-271.542,10.54-271.542L10.54-271.542z M10.54-271.542"/>
	<path d="M10.54-243.397H3.522c-2.116,0-3.522,1.407-3.522,3.523v7.017c0,2.116,1.406,3.523,3.522,3.523h7.018
		c2.116,0,3.522-1.407,3.522-3.523v-7.017C14.063-241.99,12.656-243.397,10.54-243.397L10.54-243.397z M10.54-243.397"/>
	<path d="M76.478-299.666H27.25c-2.116,0-3.522,1.406-3.522,3.52v7.022c0,2.113,1.406,3.521,3.522,3.521h49.228
		c2.116,0,3.522-1.407,3.522-3.521v-7.022C80-298.26,78.594-299.666,76.478-299.666L76.478-299.666z M76.478-299.666"/>
	<path d="M76.478-271.542H27.25c-2.116,0-3.522,1.41-3.522,3.523v7.036c0,2.116,1.406,3.522,3.522,3.522h49.228
		c2.116,0,3.522-1.406,3.522-3.522v-7.036C80-270.132,78.594-271.542,76.478-271.542L76.478-271.542z M76.478-271.542"/>
	<path d="M76.478-243.397H27.25c-2.116,0-3.522,1.407-3.522,3.523v7.017c0,2.116,1.406,3.523,3.522,3.523h49.228
		c2.116,0,3.522-1.407,3.522-3.523v-7.017C80-241.99,78.594-243.397,76.478-243.397L76.478-243.397z M76.478-243.397"/>
</g>
<g>
	<g>
		<path fill-rule="evenodd" clip-rule="evenodd" d="M157.165-282.276c-4.914,0-8.884,3.984-8.884,8.888
			c0,4.913,3.97,8.897,8.884,8.897c4.905,0,8.889-3.984,8.889-8.897C166.054-278.292,162.079-282.276,157.165-282.276
			L157.165-282.276z M206.054-300.057h-71.107c-2.447,0-4.446,1.999-4.446,4.449v62.218c0,2.452,1.999,4.446,4.446,4.446h71.107
			c2.462,0,4.446-1.994,4.446-4.446v-62.218C210.5-298.058,208.516-300.057,206.054-300.057L206.054-300.057z M201.616-240.053
			c0,1.227-0.999,2.217-2.226,2.217h-35.999l24.898-24.89l13.326,13.313V-240.053z M201.616-261.804l-9.688-9.688
			c-0.154-0.218-0.305-0.422-0.5-0.609c-0.867-0.866-2.021-1.297-3.17-1.288c-1.127-0.009-2.275,0.413-3.143,1.277
			c-0.155,0.164-0.288,0.328-0.405,0.5l-33.772,33.784h-9.329c-1.227,0-2.226-0.999-2.226-2.226v-48.895
			c0-1.224,0.999-2.224,2.226-2.224h57.781c1.227,0,2.226,1,2.226,2.224V-261.804z M201.616-261.804"/>
	</g>
</g>
<g>
	<path d="M322.577-267.41c-3.715,1.768-6.742,7.139-10.285,3.596c-2.149-2.336-4.703-6.055-7.64-10.258
		c-3.174-4.521-7.218-8.406-11.977-3.965c-5.315,4.998-8.963,18.561-9.28,25.541l50.206,0.016
		C332.453-256.585,327.991-269.988,322.577-267.41L322.577-267.41z M322.577-267.41"/>
	<path d="M328.517-281.457c0,3.408-2.762,6.173-6.174,6.173c-3.408,0-6.173-2.765-6.173-6.173c0-3.412,2.765-6.178,6.173-6.178
		C325.755-287.635,328.517-284.869,328.517-281.457L328.517-281.457z M328.517-281.457"/>
	<path d="M341.165-295.548h-65.33c-1.013,0-1.835,0.821-1.835,1.835v9.28h-9.165c-1.012,0-1.835,0.823-1.835,1.835v47.311
		c0,1.013,0.823,1.835,1.835,1.835h65.326c1.013,0,1.835-0.822,1.835-1.835v-9.28h9.169c1.012,0,1.835-0.818,1.835-1.831v-47.314
		C343-294.727,342.177-295.548,341.165-295.548L341.165-295.548z M327.07-238.379h-59.145v-41.128H274v28.595
		c-0.922,3.564-1.489,6.983-1.605,9.53l50.206,0.016c-0.219-0.786-0.56-1.91-1.009-3.201h5.479V-238.379z M338.074-249.493h-59.148
		v-41.13h59.148V-249.493z M338.074-249.493"/>
</g>
<g>
	<path d="M337.342-88.105c-9.43-7.742-19.594-12.886-21.693-13.922c-0.236-0.117-0.385-0.352-0.385-0.617v-14.688
		c1.864-1.242,3.078-3.344,3.078-5.705v-15.248c0-7.569-6.148-13.715-13.716-13.715h-3.253c-7.563,0-13.711,6.146-13.711,13.715
		v15.219c0,2.391,1.211,4.492,3.073,5.703v14.688c0,0.266-0.146,0.5-0.386,0.619c-2.063,1.006-12.234,6.146-21.688,13.92
		c-1.718,1.391-2.691,3.489-2.691,5.703V-72h74.059v-10.434C340.029-84.621,339.054-86.715,337.342-88.105L337.342-88.105z
		 M337.342-88.105"/>
</g>
<g>
	<g>
		<path d="M206.077-119.115L184.73-97.769c-5.896,5.896-15.449,5.896-21.346,0l-7.115-7.115l7.115-7.115l7.115,7.115
			c1.965,1.96,5.154,1.965,7.115,0l21.347-21.347c1.96-1.963,1.96-5.154,0-7.118l-7.115-7.115c-1.961-1.961-5.155-1.961-7.116,0
			l-7.621,7.621c-3.534-2.078-7.548-2.971-11.523-2.702l12.029-12.034c5.896-5.895,15.454-5.895,21.347,0l7.115,7.115
			C211.974-134.569,211.974-125.01,206.077-119.115L206.077-119.115z M163.886-91.154l-7.616,7.616
			c-1.966,1.966-5.155,1.961-7.116,0l-7.115-7.115c-1.966-1.961-1.966-5.15,0-7.115l21.347-21.347c1.96-1.96,5.154-1.96,7.115,0
			l7.115,7.116l7.115-7.116l-7.115-7.115c-5.897-5.894-15.449-5.894-21.346,0l-21.347,21.347c-5.897,5.896-5.897,15.454,0,21.346
			l7.115,7.116c5.892,5.896,15.449,5.896,21.347,0l12.029-12.03C171.438-88.187,167.433-89.081,163.886-91.154L163.886-91.154z
			 M163.886-91.154"/>
	</g>
</g>
<g>
	<path d="M77.75-117.916c3.221,1.475,2.951,2.699-0.598,2.699H6.436c-3.531,0-6.436-2.904-6.436-6.436v-25.715
		c0-3.547,2.637-5.227,5.84-3.736L77.75-117.916z M5.84-151.104"/>
	<path d="M6.436-102.352h47.877L6.436-80.248V-102.352 M6.436-108.789c-3.531,0-6.436,2.904-6.436,6.438v25.713
		c0,2.662,1.49,4.287,3.594,4.287c0.691,0,1.461-0.189,2.246-0.551l71.91-33.186c3.221-1.492,2.951-2.701-0.598-2.701H6.436
		L6.436-108.789z M6.436-108.789"/>
</g>
<g>
	<g>
		<path d="M-107.746-138.289l9.523,5.339l-5.338-9.524l5.338-9.523l-9.523,5.339l-9.524-5.339l5.339,9.523l-5.339,9.524
			L-107.746-138.289z M-107.746-138.289"/>
		<path d="M-62.024-100.956l-9.523-5.32l5.339,9.524l-5.339,9.523l9.523-5.343l9.524,5.343l-5.339-9.523l5.339-9.524
			L-62.024-100.956z M-62.024-100.956"/>
		<path d="M-52.5-151.998l-9.524,5.339l-9.523-5.339l5.339,9.523l-5.339,9.524l9.523-5.339l9.524,5.339l-5.339-9.524L-52.5-151.998z
			 M-52.5-151.998"/>
		<path d="M-81.462-131.815c-1.525-1.507-3.795-1.507-5.32,0l-44.588,44.587c-1.507,1.525-1.507,3.79,0,5.32l8.762,8.762
			c1.525,1.525,3.813,1.525,5.338,0l44.569-44.569c1.525-1.525,1.525-3.813,0-5.339L-81.462-131.815z M-85.647-110.852l-7.999-7.999
			l9.134-9.151l8.017,7.998L-85.647-110.852z M-85.647-110.852"/>
	</g>
</g>
<g>
	<path d="M-212.548-125.914h-23.913c-1.078,0-1.953,0.875-1.953,1.953v1.309c0,1.078,0.875,1.952,1.953,1.952h23.913
		c1.087,0,1.962-0.874,1.962-1.952v-1.309C-210.586-125.039-211.461-125.914-212.548-125.914L-212.548-125.914z M-212.327-113.736
		h-24.346c-0.96,0-1.741,0.772-1.741,1.732v1.74c0,0.96,0.781,1.741,1.741,1.741h24.346c0.96,0,1.741-0.781,1.741-1.741v-1.74
		C-210.586-112.964-211.367-113.736-212.327-113.736L-212.327-113.736z M-224.504-152c-22.087,0-39.996,17.909-39.996,39.996
		C-264.5-89.909-246.591-72-224.504-72c22.093,0,40.004-17.909,40.004-40.004C-184.5-134.091-202.411-152-224.504-152L-224.504-152z
		 M-224.504-78.955c-18.249,0-33.042-14.801-33.042-33.049c0-18.249,14.792-33.041,33.042-33.041
		c18.248,0,33.049,14.792,33.049,33.041C-191.455-93.756-206.256-78.955-224.504-78.955L-224.504-78.955z M-212.327-101.568h-24.346
		c-0.96,0-1.741,0.781-1.741,1.741v1.741c0,0.959,0.781,1.74,1.741,1.74h24.346c0.96,0,1.741-0.781,1.741-1.74v-1.741
		C-210.586-100.787-211.367-101.568-212.327-101.568L-212.327-101.568z M-212.327-101.568"/>
</g>
<g>
	<path d="M-188.582,68.027h-71.836c-2.255,0-4.082,1.827-4.082,4.082c0,2.253,1.827,4.081,4.082,4.081h71.836
		c2.255,0,4.082-1.828,4.082-4.081C-184.5,69.854-186.327,68.027-188.582,68.027L-188.582,68.027z M-188.582,68.027"/>
	<path d="M-256.201,62.04h12.789c1.429,0,2.586-1.157,2.586-2.584V24.082c0-1.429-1.157-2.586-2.586-2.586h-12.789
		c-1.427,0-2.584,1.157-2.584,2.586v35.374C-258.785,60.883-257.628,62.04-256.201,62.04L-256.201,62.04z M-256.201,62.04"/>
	<path d="M-230.895,62.04h12.789c1.428,0,2.586-1.157,2.586-2.584V6.395c0-1.428-1.158-2.585-2.586-2.585h-12.789
		c-1.428,0-2.586,1.157-2.586,2.585v53.062C-233.48,60.883-232.322,62.04-230.895,62.04L-230.895,62.04z M-230.895,62.04"/>
	<path d="M-205.588,62.04h12.789c1.427,0,2.584-1.157,2.584-2.584V30.885c0-1.429-1.157-2.586-2.584-2.586h-12.789
		c-1.428,0-2.585,1.157-2.585,2.586v28.571C-208.173,60.883-207.016,62.04-205.588,62.04L-205.588,62.04z M-205.588,62.04"/>
</g>
<g>
	<path d="M-92.5,0c-22.055,0-40,17.945-40,40c0,22.059,17.945,40,40,40c22.059,0,40-17.941,40-40C-52.5,17.945-70.441,0-92.5,0
		L-92.5,0z M-92.5,73.369c-18.399,0-33.369-14.97-33.369-33.369S-110.899,6.631-92.5,6.631S-59.131,21.601-59.131,40
		S-74.101,73.369-92.5,73.369L-92.5,73.369z M-92.5,73.369"/>
	<path d="M-92.5,13.569c-14.573,0-26.431,11.857-26.431,26.431s11.857,26.431,26.431,26.431S-66.069,54.573-66.069,40
		S-77.927,13.569-92.5,13.569L-92.5,13.569z M-92.5,59.8c-10.918,0-19.8-8.882-19.8-19.8s8.882-19.8,19.8-19.8s19.8,8.882,19.8,19.8
		S-81.582,59.8-92.5,59.8L-92.5,59.8z M-92.5,59.8"/>
	<path d="M-80.161,40c0,6.813-5.525,12.339-12.339,12.339S-104.835,46.813-104.835,40s5.521-12.335,12.335-12.335
		S-80.161,33.187-80.161,40L-80.161,40z M-80.161,40"/>
</g>
<g>
	<g>
		<path d="M79.849,37.586c0.22-0.422,0.196-0.929-0.048-1.336c-0.249-0.406-0.694-0.655-1.163-0.655h-8.601v-7.447
			c0-0.766-0.617-1.374-1.369-1.374H11.327c-0.751,0-1.368,0.608-1.368,1.374v7.447H1.373c-0.483,0-0.929,0.249-1.178,0.655
			c-0.244,0.407-0.259,0.914-0.048,1.336l3.556,6.819l-3.556,6.82c-0.211,0.416-0.196,0.924,0.048,1.33
			c0.249,0.412,0.694,0.671,1.178,0.671h16.626c0.766,0,1.373-0.618,1.373-1.374v-7.447h41.252v7.447
			c0,0.756,0.617,1.374,1.372,1.374h16.642c0.483,0,0.914-0.259,1.163-0.671c0.244-0.406,0.268-0.914,0.048-1.33l-3.547-6.82
			L79.849,37.586z M17.803,51.742l-7.844-7.337h7.844V51.742z M62.192,51.742v-7.337h7.845L62.192,51.742z M62.192,51.742"/>
	</g>
</g>
</svg>
