<?xml version="1.0" encoding="utf-8"?>
<svg version="1.1" id="Layer_1" xmlns="http://www.w3.org/2000/svg" xmlns:xlink="http://www.w3.org/1999/xlink" x="0px" y="0px"
	 width="20px" height="20px" viewBox="0 0 20 20" enable-background="new 0 0 20 20" xml:space="preserve">
<g>
	<path d="M7.214,9.887C7.183,9.79,7.1,9.72,6.999,9.705L5.652,9.51L5.049,8.288c-0.09-0.182-0.39-0.182-0.479,0L3.968,9.509
		L2.62,9.704C2.518,9.72,2.435,9.79,2.403,9.887c-0.031,0.097-0.005,0.202,0.068,0.272l0.976,0.95l-0.229,1.343
		c-0.017,0.1,0.024,0.201,0.106,0.262c0.045,0.032,0.101,0.05,0.156,0.05c0.042,0,0.085-0.011,0.124-0.03l1.205-0.635l1.206,0.635
		c0.089,0.046,0.199,0.039,0.281-0.02c0.082-0.061,0.123-0.163,0.105-0.262l-0.23-1.343l0.976-0.951
		C7.219,10.088,7.246,9.983,7.214,9.887z M5.699,10.826c-0.062,0.062-0.092,0.148-0.077,0.236l0.163,0.948l-0.852-0.447
		c-0.04-0.021-0.081-0.031-0.124-0.031s-0.085,0.011-0.125,0.031l-0.85,0.447l0.162-0.948c0.016-0.088-0.014-0.175-0.076-0.236
		l-0.689-0.67l0.952-0.138C4.27,10.005,4.345,9.95,4.384,9.872L4.81,9.009l0.426,0.863c0.039,0.078,0.113,0.134,0.201,0.146
		l0.95,0.138L5.699,10.826z"/>
	<path d="M10.184,8.288c-0.091-0.184-0.389-0.184-0.479,0L9.103,9.509L7.754,9.704C7.653,9.72,7.57,9.79,7.539,9.887
		c-0.032,0.097-0.005,0.202,0.067,0.272l0.976,0.95l-0.229,1.343c-0.016,0.1,0.025,0.201,0.106,0.262
		c0.046,0.032,0.102,0.05,0.156,0.05c0.042,0,0.086-0.011,0.125-0.03l1.204-0.635l1.207,0.635c0.09,0.045,0.197,0.038,0.281-0.02
		c0.082-0.061,0.123-0.163,0.105-0.262l-0.23-1.343l0.977-0.951c0.072-0.071,0.098-0.177,0.066-0.272
		c-0.031-0.097-0.115-0.168-0.215-0.183l-1.348-0.195L10.184,8.288z M10.833,10.826c-0.062,0.062-0.091,0.148-0.075,0.236
		l0.163,0.948l-0.852-0.447c-0.039-0.021-0.082-0.031-0.124-0.031c-0.043,0-0.085,0.011-0.125,0.031l-0.851,0.447l0.162-0.948
		c0.015-0.088-0.014-0.175-0.077-0.236l-0.688-0.67l0.952-0.138c0.087-0.013,0.162-0.068,0.201-0.146l0.425-0.863l0.426,0.863
		c0.04,0.078,0.114,0.134,0.201,0.146l0.952,0.138L10.833,10.826z"/>
	<path d="M12.898,9.704c-0.102,0.016-0.184,0.086-0.217,0.183c-0.031,0.096-0.006,0.202,0.068,0.272l0.977,0.95l-0.23,1.343
		c-0.018,0.1,0.023,0.201,0.105,0.262c0.047,0.032,0.102,0.05,0.156,0.05c0.045,0,0.086-0.011,0.127-0.03l1.203-0.635l1.205,0.635
		c0.092,0.045,0.199,0.038,0.281-0.02c0.082-0.061,0.125-0.163,0.105-0.262l-0.229-1.343l0.975-0.951
		c0.074-0.071,0.098-0.177,0.066-0.272c-0.029-0.097-0.113-0.168-0.215-0.183L15.93,9.508l-0.604-1.221
		c-0.09-0.183-0.389-0.183-0.479,0l-0.602,1.221L12.898,9.704z M14.664,9.871l0.424-0.863l0.428,0.863
		c0.039,0.079,0.113,0.134,0.201,0.146l0.951,0.138l-0.689,0.67c-0.064,0.062-0.094,0.149-0.076,0.236l0.162,0.948l-0.85-0.447
		c-0.041-0.021-0.082-0.03-0.125-0.03s-0.086,0.01-0.125,0.03l-0.852,0.447l0.164-0.948c0.016-0.087-0.016-0.175-0.078-0.236
		l-0.688-0.67l0.951-0.138C14.549,10.004,14.625,9.95,14.664,9.871z"/>
	<path d="M12.734,6.512h1.512c0.197,0,0.355-0.16,0.355-0.355c0-0.197-0.158-0.356-0.355-0.356h-1.512
		c-0.197,0-0.355,0.159-0.355,0.356C12.379,6.352,12.537,6.512,12.734,6.512z"/>
	<path d="M19.123,5.801h-3.498c-0.197,0-0.355,0.159-0.355,0.356c0,0.195,0.158,0.355,0.355,0.355h3.344v7.878H1.031V6.512h10.473
		c0.197,0,0.355-0.16,0.355-0.355c0-0.197-0.158-0.356-0.355-0.356H0.877c-0.307,0-0.557,0.25-0.557,0.557v8.188
		c0,0.308,0.251,0.557,0.557,0.557h18.246c0.309,0,0.557-0.25,0.557-0.557V6.358C19.68,6.051,19.43,5.801,19.123,5.801z"/>
</g>
</svg>
