<?xml version="1.0" encoding="utf-8"?>
<!-- Generator: Adobe Illustrator 16.0.0, SVG Export Plug-In . SVG Version: 6.00 Build 0)  -->
<!DOCTYPE svg PUBLIC "-//W3C//DTD SVG 1.1 Tiny//EN" "http://www.w3.org/Graphics/SVG/1.1/DTD/svg11-tiny.dtd">
<svg version="1.1" baseProfile="tiny" id="Layer_1" xmlns="http://www.w3.org/2000/svg" xmlns:xlink="http://www.w3.org/1999/xlink"
	 x="0px" y="0px" width="22px" height="22px" viewBox="35.5 120.5 539 259.333" xml:space="preserve">
<g id="Layer_2">
	<g id="Interface-Light">
		<g id="interface-light-rating-stars">
			<path d="M314.641,137.111l16.847,47.17c1.244,3.742,4.641,6.35,8.577,6.586l48.395,1.991c5.487,0.349,9.651,5.081,9.302,10.568
				c-0.18,2.829-1.558,5.447-3.789,7.197l-37.979,31.855c-3.104,2.487-4.428,6.581-3.37,10.415l13.171,48.855
				c1.599,5.083-1.227,10.5-6.31,12.099c-2.722,0.855-5.682,0.463-8.086-1.072l-40.434-28.179c-3.09-2.298-7.322-2.298-10.413,0
				l-40.738,28.179c-4.491,2.868-10.457,1.551-13.324-2.94c-1.535-2.404-1.928-5.365-1.072-8.086l13.171-48.855
				c1.058-3.833-0.267-7.927-3.369-10.415l-37.982-30.63c-4.755-2.759-6.374-8.851-3.614-13.606
				c1.929-3.326,5.602-5.243,9.434-4.925l48.396-1.991c4.059-0.304,7.489-3.123,8.576-7.045l16.847-47.17
				c1.599-4.906,6.871-7.587,11.776-5.989C311.49,132.047,313.717,134.273,314.641,137.111z"/>
			<path d="M125.26,228.688l13.721,38.418c1.013,3.047,3.779,5.17,6.985,5.363l39.417,1.622c4.468,0.284,7.86,4.138,7.576,8.607
				c-0.147,2.304-1.27,4.437-3.086,5.862l-30.934,17.183c-2.527,2.025-3.605,14.122-2.745,17.244l10.728,39.791
				c1.302,4.14-0.999,8.551-5.139,9.854c-2.217,0.696-4.628,0.377-6.586-0.874l-32.93-22.951c-2.518-1.871-5.964-1.871-8.482,0
				l-32.93,22.951c-3.658,2.336-8.517,1.264-10.853-2.394c-1.25-1.958-1.569-4.37-0.873-6.586l10.727-39.791
				c0.861-3.122-0.218-15.218-2.744-17.244l-30.934-16.809c-3.522-2.765-4.137-7.861-1.373-11.383
				c1.426-1.817,3.559-2.939,5.863-3.086l39.416-1.621c3.306-0.248,6.1-2.543,6.985-5.738l13.721-38.792
				c1.4-3.962,5.748-6.039,9.709-4.638C122.798,224.487,124.567,226.351,125.26,228.688z"/>
			<path d="M501.21,229.688l13.721,38.418c1.014,3.047,3.779,5.17,6.984,5.363l39.416,1.622c4.469,0.284,7.861,4.138,7.576,8.607
				c-0.146,2.304-1.27,4.437-3.086,5.862l-30.934,17.183c-2.526,2.025-3.605,14.122-2.743,17.244l10.727,39.791
				c1.302,4.14-0.999,8.551-5.139,9.854c-2.217,0.696-4.628,0.377-6.587-0.874l-32.93-22.951c-2.518-1.871-5.964-1.871-8.481,0
				l-32.931,22.951c-3.658,2.336-8.517,1.264-10.852-2.394c-1.251-1.958-1.57-4.37-0.874-6.586l10.728-39.791
				c0.861-3.122-0.218-15.218-2.743-17.244l-30.935-16.809c-3.521-2.765-4.137-7.861-1.371-11.383
				c1.424-1.817,3.558-2.939,5.861-3.086l39.416-1.621c3.206-0.193,5.971-2.317,6.985-5.364l13.722-38.792
				c1.301-3.996,5.595-6.18,9.591-4.878C498.644,225.563,500.456,227.376,501.21,229.688z"/>
		</g>
	</g>
</g>
</svg>
