<?xml version="1.0" encoding="utf-8"?>
<!-- Generator: Adobe Illustrator 16.0.0, SVG Export Plug-In . SVG Version: 6.00 Build 0)  -->
<!DOCTYPE svg PUBLIC "-//W3C//DTD SVG 1.1//EN" "http://www.w3.org/Graphics/SVG/1.1/DTD/svg11.dtd">
<svg version="1.1" id="Layer_1" xmlns="http://www.w3.org/2000/svg" xmlns:xlink="http://www.w3.org/1999/xlink" x="0px" y="0px"
	 width="20px" height="20px" viewBox="0 0 80 80" enable-background="new 0 0 80 80" xml:space="preserve">
<g>
	<path d="M-194.5,0h-60c-4.125,0-7.5,3.375-7.5,7.5v65c0,4.125,3.375,7.5,7.5,7.5h60c4.125,0,7.5-3.375,7.5-7.5v-65
		C-187,3.375-190.375,0-194.5,0L-194.5,0z M-194.458,72.772h-60.084V7.227h60.084V72.772z M-242,45h35v5h-35V45z M-242,55h35v5h-35
		V55z M-237,22.5c0,4.142,3.357,7.5,7.5,7.5s7.5-3.359,7.5-7.5c0-4.142-3.357-7.5-7.5-7.5S-237,18.358-237,22.5L-237,22.5z
		 M-224.5,30h-10c-4.125,0-7.5,2.25-7.5,4.999v5h25v-5C-217,32.25-220.375,30-224.5,30L-224.5,30z M-224.5,30"/>
</g>
<g>
	<path d="M-55.387,72.848h-74.227c-1.598,0-2.887-1.367-2.887-3.043V10.196c0-1.684,1.289-3.043,2.887-3.043h74.227
		c1.598,0,2.887,1.36,2.887,3.043v59.608C-52.5,71.48-53.789,72.848-55.387,72.848L-55.387,72.848z M-126.728,66.76h68.455V13.232
		h-68.455V66.76z M-126.728,66.76"/>
	<path d="M-112.921,39.322c-5.305,0-9.624-4.32-9.624-9.629c0-5.312,4.319-9.63,9.624-9.63c5.312,0,9.63,4.318,9.63,9.63
		C-103.291,35.002-107.609,39.322-112.921,39.322L-112.921,39.322z M-112.921,26.142c-1.95,0-3.545,1.594-3.545,3.551
		c0,1.958,1.595,3.545,3.545,3.545c1.956,0,3.55-1.588,3.55-3.545C-109.371,27.736-110.965,26.142-112.921,26.142L-112.921,26.142z
		 M-112.921,26.142"/>
	<path d="M-106.326,59.932h-13.177c-1.682,0-3.042-1.365-3.042-3.043V43.713c0-1.678,1.36-3.045,3.042-3.045h13.177
		c1.676,0,3.035,1.367,3.035,3.045v13.176C-103.291,58.566-104.65,59.932-106.326,59.932L-106.326,59.932z M-116.466,53.852h7.095
		v-7.096h-7.095V53.852z M-116.466,53.852"/>
	<g>
		<path d="M-66.101,29.542h-28.964c-1.676,0-3.035-1.364-3.035-3.042c0-1.678,1.359-3.038,3.035-3.038h28.964
			c1.676,0,3.035,1.36,3.035,3.038C-63.065,28.178-64.425,29.542-66.101,29.542L-66.101,29.542z M-66.101,29.542"/>
		<path d="M-66.101,42.719h-28.964c-1.676,0-3.035-1.359-3.035-3.037c0-1.684,1.359-3.043,3.035-3.043h28.964
			c1.676,0,3.035,1.359,3.035,3.043C-63.065,41.359-64.425,42.719-66.101,42.719L-66.101,42.719z M-66.101,42.719"/>
		<path d="M-66.101,55.895h-28.964c-1.676,0-3.035-1.365-3.035-3.045c0-1.676,1.359-3.033,3.035-3.033h28.964
			c1.676,0,3.035,1.357,3.035,3.033C-63.065,54.529-64.425,55.895-66.101,55.895L-66.101,55.895z M-66.101,55.895"/>
	</g>
</g>
<g>
	<path d="M10.54,4.834H3.522C1.406,4.834,0,6.24,0,8.354v7.022c0,2.113,1.406,3.521,3.522,3.521h7.018
		c2.116,0,3.522-1.407,3.522-3.521V8.354C14.063,6.24,12.656,4.834,10.54,4.834L10.54,4.834z M10.54,4.834"/>
	<path d="M10.54,32.958H3.522C1.406,32.958,0,34.368,0,36.481v7.036c0,2.116,1.406,3.522,3.522,3.522h7.018
		c2.116,0,3.522-1.406,3.522-3.522v-7.036C14.063,34.368,12.656,32.958,10.54,32.958L10.54,32.958z M10.54,32.958"/>
	<path d="M10.54,61.103H3.522C1.406,61.103,0,62.51,0,64.626v7.017c0,2.116,1.406,3.523,3.522,3.523h7.018
		c2.116,0,3.522-1.407,3.522-3.523v-7.017C14.063,62.51,12.656,61.103,10.54,61.103L10.54,61.103z M10.54,61.103"/>
	<path d="M76.478,4.834H27.25c-2.116,0-3.522,1.406-3.522,3.52v7.022c0,2.113,1.406,3.521,3.522,3.521h49.228
		c2.116,0,3.522-1.407,3.522-3.521V8.354C80,6.24,78.594,4.834,76.478,4.834L76.478,4.834z M76.478,4.834"/>
	<path d="M76.478,32.958H27.25c-2.116,0-3.522,1.41-3.522,3.523v7.036c0,2.116,1.406,3.522,3.522,3.522h49.228
		c2.116,0,3.522-1.406,3.522-3.522v-7.036C80,34.368,78.594,32.958,76.478,32.958L76.478,32.958z M76.478,32.958"/>
	<path d="M76.478,61.103H27.25c-2.116,0-3.522,1.407-3.522,3.523v7.017c0,2.116,1.406,3.523,3.522,3.523h49.228
		c2.116,0,3.522-1.407,3.522-3.523v-7.017C80,62.51,78.594,61.103,76.478,61.103L76.478,61.103z M76.478,61.103"/>
</g>
</svg>
