<?xml version="1.0" encoding="utf-8"?>
<!-- Generator: Adobe Illustrator 16.0.0, SVG Export Plug-In . SVG Version: 6.00 Build 0)  -->
<!DOCTYPE svg PUBLIC "-//W3C//DTD SVG 1.1//EN" "http://www.w3.org/Graphics/SVG/1.1/DTD/svg11.dtd">
<svg version="1.1" id="Layer_1" xmlns="http://www.w3.org/2000/svg" xmlns:xlink="http://www.w3.org/1999/xlink" x="0px" y="0px"
	 width="60px" height="60px" viewBox="0 0 60 60" enable-background="new 0 0 60 60" xml:space="preserve">
<g>
	<linearGradient id="SVGID_1_" gradientUnits="userSpaceOnUse" x1="36.1992" y1="35.3027" x2="43.8496" y2="35.3027">
		<stop  offset="0" style="stop-color:#2541AE"/>
		<stop  offset="1" style="stop-color:#0664E0"/>
	</linearGradient>
	<path fill="url(#SVGID_1_)" d="M41.852,32.997h-5.652v4.612h5.441c0.637,0,1.164-0.21,1.589-0.624
		c0.417-0.416,0.62-0.959,0.62-1.636c0-0.659-0.186-1.21-0.56-1.666C42.906,33.227,42.431,32.997,41.852,32.997z"/>
	<linearGradient id="SVGID_2_" gradientUnits="userSpaceOnUse" x1="36.1992" y1="26.9688" x2="43.0762" y2="26.9688">
		<stop  offset="0" style="stop-color:#2541AE"/>
		<stop  offset="1" style="stop-color:#0664E0"/>
	</linearGradient>
	<path fill="url(#SVGID_2_)" d="M42.448,28.621c0.417-0.355,0.628-0.914,0.628-1.668c0-0.694-0.182-1.226-0.557-1.603
		c-0.365-0.381-0.813-0.568-1.33-0.568h-4.99v4.373h4.813C41.548,29.155,42.031,28.979,42.448,28.621z"/>
	<linearGradient id="SVGID_3_" gradientUnits="userSpaceOnUse" x1="0.5" y1="30" x2="59.5" y2="30">
		<stop  offset="0" style="stop-color:#2541AE"/>
		<stop  offset="1" style="stop-color:#0664E0"/>
	</linearGradient>
	<path fill="url(#SVGID_3_)" d="M30,0.5C13.704,0.5,0.5,13.712,0.5,30c0,16.294,13.204,29.5,29.5,29.5
		c16.295,0,29.5-13.206,29.5-29.5C59.5,13.712,46.294,0.5,30,0.5z M29.431,35.412c-0.357,1.254-0.896,2.358-1.639,3.304
		c-0.722,0.943-1.661,1.689-2.788,2.227c-1.141,0.535-2.478,0.807-4.047,0.807c-1.621,0-2.996-0.287-4.145-0.859
		c-1.139-0.565-2.061-1.326-2.793-2.287c-0.702-0.944-1.229-2.047-1.561-3.306c-0.339-1.266-0.497-2.586-0.497-3.963V20.639h4.682
		v10.695c0,0.811,0.079,1.585,0.228,2.303c0.155,0.736,0.393,1.377,0.743,1.952c0.347,0.571,0.778,1.026,1.333,1.359
		c0.535,0.328,1.203,0.496,2.01,0.496c0.806,0,1.471-0.17,2.023-0.516c0.558-0.344,1.01-0.801,1.342-1.363
		c0.346-0.571,0.588-1.232,0.732-1.974c0.141-0.726,0.218-1.476,0.218-2.258V20.641h4.682v10.693h0.003
		C29.954,32.802,29.777,34.151,29.431,35.412z M48.279,38.71c-0.375,0.679-0.893,1.24-1.555,1.68
		c-0.655,0.449-1.42,0.788-2.305,1.016c-0.875,0.229-1.801,0.344-2.779,0.344H31.287V20.613h11.815c0.739,0,1.412,0.162,2.007,0.479
		c0.604,0.317,1.105,0.729,1.53,1.235c0.415,0.503,0.743,1.081,0.972,1.727s0.346,1.305,0.346,1.978
		c0,1.014-0.259,1.964-0.771,2.859c-0.502,0.89-1.271,1.566-2.281,2.023c1.214,0.355,2.171,0.991,2.886,1.905
		c0.706,0.914,1.059,2.083,1.059,3.513C48.85,37.246,48.661,38.033,48.279,38.71z"/>
</g>
</svg>
