<?xml version="1.0" encoding="utf-8"?>
<!-- Generator: Adobe Illustrator 16.0.0, SVG Export Plug-In . SVG Version: 6.00 Build 0)  -->
<!DOCTYPE svg PUBLIC "-//W3C//DTD SVG 1.1//EN" "http://www.w3.org/Graphics/SVG/1.1/DTD/svg11.dtd">
<svg version="1.1" id="Layer_1" xmlns="http://www.w3.org/2000/svg" xmlns:xlink="http://www.w3.org/1999/xlink" x="0px" y="0px"
	 width="128px" height="128px" viewBox="63.5 -37 128 128" enable-background="new 63.5 -37 128 128" xml:space="preserve">
<g>
	<g>
		<linearGradient id="SVGID_1_" gradientUnits="userSpaceOnUse" x1="166.5146" y1="62.1299" x2="88.4837" y2="-8.1295">
			<stop  offset="0" style="stop-color:#22A5AB"/>
			<stop  offset="1" style="stop-color:#3451AD"/>
		</linearGradient>
		<path fill="url(#SVGID_1_)" d="M127.5-22.427c27.241,0,49.411,22.174,49.411,49.427c0,27.253-22.165,49.428-49.411,49.428
			c-27.248,0-49.411-22.175-49.411-49.428C78.089-0.253,100.254-22.427,127.5-22.427 M127.5-25.5C98.502-25.5,75-1.992,75,27
			c0,28.993,23.502,52.5,52.5,52.5c28.995,0,52.5-23.507,52.5-52.5C180-1.992,156.493-25.5,127.5-25.5L127.5-25.5z"/>
	</g>
	<linearGradient id="SVGID_2_" gradientUnits="userSpaceOnUse" x1="126.9434" y1="38.8281" x2="95.3553" y2="10.3862">
		<stop  offset="0" style="stop-color:#22A5AB"/>
		<stop  offset="1" style="stop-color:#3451AD"/>
	</linearGradient>
	<path fill="url(#SVGID_2_)" d="M126.489,36.63c-0.641,2.228-1.6,4.196-2.917,5.887c-1.282,1.665-2.959,2.993-4.967,3.955
		c-2.025,0.958-4.409,1.437-7.196,1.437c-2.891,0-5.332-0.512-7.375-1.527c-2.033-1.004-3.674-2.361-4.97-4.063
		c-1.255-1.69-2.197-3.656-2.78-5.892c-0.601-2.252-0.887-4.601-0.887-7.049V10.34h8.337v19.037c0,1.445,0.136,2.811,0.402,4.097
		c0.271,1.308,0.696,2.448,1.321,3.473c0.619,1.016,1.385,1.823,2.374,2.41c0.95,0.601,2.142,0.896,3.577,0.896
		c1.432,0,2.617-0.3,3.604-0.916c0.984-0.611,1.797-1.424,2.382-2.44c0.616-1.016,1.052-2.181,1.309-3.496
		c0.249-1.304,0.382-2.641,0.382-4.022V10.345h8.337v19.032h0.001C127.423,31.979,127.107,34.39,126.489,36.63z"/>
	<g>
		<linearGradient id="SVGID_3_" gradientUnits="userSpaceOnUse" x1="158.709" y1="44.2979" x2="125.835" y2="14.698">
			<stop  offset="0" style="stop-color:#22A5AB"/>
			<stop  offset="1" style="stop-color:#3451AD"/>
		</linearGradient>
		<path fill="url(#SVGID_3_)" d="M161.049,38.266c0,1.624-0.341,3.039-1.013,4.239c-0.678,1.203-1.599,2.197-2.766,2.993
			c-1.175,0.795-2.541,1.395-4.102,1.798c-1.562,0.408-3.211,0.612-4.952,0.612h-18.42V10.297h21.03
			c1.312,0,2.502,0.283,3.567,0.847c1.063,0.564,1.971,1.301,2.714,2.196c0.743,0.901,1.32,1.93,1.727,3.073
			c0.406,1.153,0.615,2.325,0.615,3.526c0,1.805-0.449,3.498-1.357,5.085c-0.907,1.588-2.263,2.787-4.073,3.6
			c2.162,0.637,3.878,1.77,5.138,3.393C160.419,33.641,161.049,35.727,161.049,38.266z M138.523,17.713v7.786h8.576
			c0.96,0,1.808-0.316,2.555-0.951c0.748-0.637,1.116-1.624,1.116-2.968c0-1.237-0.327-2.186-0.983-2.858
			c-0.657-0.67-1.448-1.008-2.369-1.008H138.523z M152.155,36.518c0-1.161-0.335-2.152-1.011-2.965
			c-0.676-0.812-1.527-1.22-2.56-1.22h-10.062v8.211h9.693c1.135,0,2.076-0.368,2.818-1.107
			C151.783,38.69,152.155,37.716,152.155,36.518z"/>
	</g>
</g>
</svg>
